<svg width="13" height="13" viewBox="0 0 13 13" fill="none" xmlns="http://www.w3.org/2000/svg">
<path d="M5.66683 11C6.85015 10.9998 7.99937 10.6037 8.9315 9.87471L11.8622 12.8054L12.8048 11.8627L9.87416 8.93204C10.6035 7.99982 10.9999 6.85033 11.0002 5.66671C11.0002 2.72604 8.6075 0.333374 5.66683 0.333374C2.72616 0.333374 0.333496 2.72604 0.333496 5.66671C0.333496 8.60737 2.72616 11 5.66683 11ZM5.66683 1.66671C7.87283 1.66671 9.66683 3.46071 9.66683 5.66671C9.66683 7.87271 7.87283 9.66671 5.66683 9.66671C3.46083 9.66671 1.66683 7.87271 1.66683 5.66671C1.66683 3.46071 3.46083 1.66671 5.66683 1.66671Z" fill="#373435"/>
</svg>
