<svg height="60" width="60" xmlns="http://www.w3.org/2000/svg"><defs><linearGradient id="a" x1="66.67%" x2="41.67%" y1="16.67%" y2="75%"><stop offset="0%" stop-color="#37AEE2"/><stop offset="100%" stop-color="#1E96C8"/></linearGradient><linearGradient id="b" x1="61.235%" x2="74.706%" y1="43.69%" y2="80.24%"><stop offset="0%" stop-color="#EFF7FC"/><stop offset="100%" stop-color="#FFF"/></linearGradient></defs><g fill="none" fill-rule="evenodd"><circle cx="30" cy="30" fill="url(#a)" r="30"/><path d="M24.5 43.75c-.972 0-.807-.367-1.142-1.292L20.5 33.05 42.5 20" fill="#C8DAEA"/><path d="M24.5 43.75c.75 0 1.081-.343 1.5-.75l4-3.89-4.99-3.008" fill="#A9C9DD"/><path d="M25.01 36.102l12.09 8.933c1.38.761 2.375.367 2.719-1.281l4.921-23.19c.504-2.02-.77-2.937-2.09-2.338L13.753 29.37c-1.973.791-1.961 1.891-.36 2.382l7.416 2.314 17.168-10.83c.81-.492 1.555-.228.944.314" fill="url(#b)"/></g></svg>
